HIERARCHY
ROOT hip
{
	OFFSET 0.000000 0.000000 0.000000 
	CHANNELS 6 Xposition Yposition Zposition Xrotation Zrotation Yrotation
	JOINT abdomen
	{
		OFFSET 0.000000 3.402643 0.000000 
		CHANNELS 3 Xrotation Zrotation Yrotation
		JOINT chest
		{
			OFFSET 0.000000 8.438565 -0.680529 
			CHANNELS 3 Xrotation Zrotation Yrotation
			JOINT neck
			{
				OFFSET 0.000000 10.207942 -0.272212 
				CHANNELS 3 Xrotation Zrotation Yrotation
				JOINT head
				{
					OFFSET 0.000000 3.130431 0.000000 
					CHANNELS 3 Xrotation Zrotation Yrotation
					End Site
					{
						OFFSET 0.000000 3.130435 0.000000 
					}
				}
			}
			JOINT lCollar
			{
				OFFSET 3.470700 6.669187 -0.816635 
				CHANNELS 3 Yrotation Zrotation Xrotation
				JOINT lShldr
				{
					OFFSET 3.198488 0.000000 0.000000 
					CHANNELS 3 Zrotation Yrotation Xrotation
					JOINT lForeArm
					{
						OFFSET 10.139888 0.000000 0.000000 
						CHANNELS 3 Yrotation Zrotation Xrotation
						JOINT lHand
						{
							OFFSET 8.370511 0.000000 0.000000 
							CHANNELS 3 Zrotation Yrotation Xrotation
							End Site
							{
								OFFSET 4.083176 0.000000 0.000000 
							}
						}
					}
				}
			}
			JOINT rCollar
			{
				OFFSET -3.470700 6.669187 -0.816635 
				CHANNELS 3 Yrotation Zrotation Xrotation
				JOINT rShldr
				{
					OFFSET -3.198488 0.000000 0.000000 
					CHANNELS 3 Zrotation Yrotation Xrotation
					JOINT rForeArm
					{
						OFFSET -10.139888 0.000000 0.000000 
						CHANNELS 3 Yrotation Zrotation Xrotation
						JOINT rHand
						{
							OFFSET -8.370511 0.000000 0.000000 
							CHANNELS 3 Zrotation Yrotation Xrotation
							End Site
							{
								OFFSET -4.083176 0.000000 0.000000 
							}
						}
					}
				}
			}
		}
	}
	JOINT lThigh
	{
		OFFSET 5.308129 -1.633274 1.361059 
		CHANNELS 3 Xrotation Zrotation Yrotation
		JOINT lShin
		{
			OFFSET -2.041588 -20.007561 0.000000 
			CHANNELS 3 Xrotation Zrotation Yrotation
			JOINT lFoot
			{
				OFFSET 0.000000 -19.190928 -1.224953 
				CHANNELS 3 Xrotation Yrotation Zrotation
				End Site
				{
					OFFSET 0.000000 -2.449906 4.627600 
				}
			}
		}
	}
	JOINT rThigh
	{
		OFFSET -5.308129 -1.633274 1.361059 
		CHANNELS 3 Xrotation Zrotation Yrotation
		JOINT rShin
		{
			OFFSET 2.041588 -20.007561 0.000000 
			CHANNELS 3 Xrotation Zrotation Yrotation
			JOINT rFoot
			{
				OFFSET 0.000000 -19.190928 -1.224953 
				CHANNELS 3 Xrotation Yrotation Zrotation
				End Site
				{
					OFFSET 0.000000 -2.449906 4.627600 
				}
			}
		}
	}
}
MOTION
Frames: 18
Frame Time: 0.033333
101.203377 62.991688 52.445011 -1.425781 3.496094 68.291611 34.592575 -8.123853 -3.434561 -5.634766 12.939662 10.050838 51.063168 8.107644 2.471410 -20.546877 -15.312500 -5.771485 2.000000 -2.000000 0.000000 -78.925781 -3.046875 19.550262 -50.930035 -1.995356 -2.061018 12.139893 53.094887 8.650021 -2.000000 2.000000 0.000000 74.501953 -0.009766 11.669920 51.954208 1.650159 -2.012984 -41.341743 -63.389648 29.661325 -0.087638 7.948637 -1.343112 12.412925 -4.753085 -1.828425 -3.748670 2.946302 -14.227284 2.068773 -10.856709 -11.485868 11.234309 5.112290 0.486724 0.234657 -3.422613 12.024797 
101.031410 63.007660 52.344219 -1.425781 3.496094 67.940048 34.944138 -8.123853 -3.434560 -5.449219 12.929688 9.902345 51.063168 8.107644 2.471410 -20.781252 -14.423828 -6.064454 2.000000 -2.000000 0.000000 -78.378906 -3.613281 19.931639 -50.753990 -1.994787 -2.051273 11.159628 52.506901 7.514355 -2.000000 2.000000 0.000000 74.160156 0.478516 11.406348 51.954208 1.650159 -2.012984 -41.332874 -63.389271 29.661507 -0.389662 8.076347 -0.969973 12.591843 -4.676067 -2.030200 -3.480438 3.107368 -14.113261 1.913422 -10.955048 -11.864886 11.236397 5.074022 0.990141 0.223927 -3.439240 11.757030 
100.882835 62.982899 52.269001 -1.611328 3.496094 67.734970 35.120121 -8.127275 -3.425417 -5.429686 13.085938 9.972915 51.063168 8.107644 2.471410 -20.996096 -13.505858 -6.533205 2.000000 -2.000000 0.000000 -78.027344 -4.072266 20.682901 -50.757961 -1.876005 -2.195101 10.332949 52.429497 6.415554 -2.000000 2.000000 0.000000 74.091797 0.654297 11.572265 51.954208 1.650159 -2.012984 -40.997547 -63.237846 29.173443 -0.594444 8.096168 -0.988232 12.785666 -5.026950 -1.708368 -3.730003 2.681278 -13.944764 1.727607 -10.722030 -11.631813 11.237113 5.074355 0.960944 0.220726 -3.539601 11.928700 
100.782158 62.964382 52.225029 -1.611328 3.681641 67.559227 35.120121 -8.127275 -3.425417 -5.429686 13.085938 9.972915 51.063168 8.107644 2.471410 -21.035158 -12.441405 -6.787110 2.000000 -2.000000 0.000000 -77.626953 -4.833984 21.210112 -50.578171 -2.014286 -2.050136 9.723033 52.325645 5.734791 -2.000000 2.000000 0.000000 73.857422 0.810547 11.562640 51.954208 1.650159 -2.012984 -40.528542 -63.169250 28.610722 -0.565713 8.074892 -0.634567 12.796627 -5.024961 -1.718719 -3.741384 2.773460 -13.652970 1.512893 -10.839108 -11.447708 11.237101 5.074380 0.960946 0.397355 -3.175697 11.937102 
100.728004 62.966919 52.223755 -1.767578 3.681641 67.382813 35.120121 -8.127275 -3.425417 -5.429686 13.085938 9.972915 51.063168 8.107644 2.471410 -21.074217 -11.220702 -7.140573 2.000000 -2.000000 0.000000 -77.392578 -5.019532 21.591793 -50.225235 -1.903634 -1.997918 8.792758 52.033783 5.497455 -2.000000 2.000000 0.000000 74.062500 0.722656 11.738406 51.778160 1.649590 -2.003238 -40.200279 -63.332176 28.344450 -0.467892 8.177123 -0.461154 12.967149 -5.087366 -1.553298 -3.635193 2.641885 -13.567378 1.501342 -10.842712 -11.270150 11.408941 5.072563 0.985107 0.391286 -3.312330 11.855437 
100.699661 62.959522 52.250599 -1.767578 3.857422 67.373047 34.961544 -8.265380 -3.530840 -5.429686 13.085938 9.972915 51.063168 8.107644 2.471410 -20.908207 -9.853516 -7.597656 2.000000 -2.000000 0.000000 -76.943359 -5.195313 21.415131 -49.698429 -2.032078 -2.019762 8.201740 51.843227 5.470414 -2.000000 2.000000 0.000000 74.267578 0.595703 11.757813 51.426319 1.658770 -1.992926 -39.897190 -63.329514 28.435547 -0.488009 8.387130 -0.093823 13.141789 -5.067561 -1.585461 -3.833489 2.397249 -13.693954 1.689271 -10.556150 -11.093171 11.408935 5.072577 0.985108 0.380151 -3.218074 11.712652 
100.719681 62.965652 52.319458 -1.943359 3.857422 67.188156 34.779194 -8.492471 -3.482003 -5.429686 13.085938 9.972915 51.063168 8.107644 2.471410 -20.527344 -8.486328 -7.910157 2.000000 -2.000000 0.000000 -77.187500 -5.019531 21.229616 -49.522366 -2.041258 -2.009448 7.593855 52.024071 5.639070 -2.000000 2.000000 0.000000 74.404297 0.703125 12.070434 51.250523 1.668519 -1.992359 -39.271481 -63.598179 27.802923 -0.331454 8.558772 0.094196 13.313028 -5.056356 -1.608684 -3.895408 2.239742 -13.380008 1.834748 -10.652915 -10.927888 11.764266 5.064795 1.013529 0.381233 -3.247873 12.098732 
100.758675 62.938000 52.421055 -2.128906 4.033203 66.982422 34.422058 -8.732100 -3.427478 -5.429686 13.085938 9.972915 51.063168 8.107644 2.471410 -20.166018 -6.982421 -8.466797 2.000000 -2.000000 0.000000 -77.167969 -4.990234 21.025389 -49.526062 -1.921910 -2.143531 7.469082 52.413803 5.604413 -2.000000 2.000000 0.000000 74.726563 0.859375 12.597803 51.074745 1.668519 -1.992359 -39.266659 -63.921608 28.004974 -0.145864 8.738713 0.273582 13.311404 -5.075958 -1.425627 -3.325933 2.003502 -13.335526 2.009895 -10.503561 -11.117311 11.743426 4.663807 1.124208 0.215810 -3.033108 12.191126 
100.828438 62.963684 52.532715 -2.119140 4.199219 66.992905 33.869938 -8.808551 -3.280386 -5.429686 13.085938 9.972915 51.063168 8.107644 2.471410 -19.931643 -5.488281 -8.828126 2.000000 -2.000000 0.000000 -77.587891 -4.648438 19.862490 -49.873390 -1.912814 -1.987603 7.310951 52.676353 6.047564 -2.000000 2.000000 0.000000 74.824219 0.996094 12.939453 50.908184 1.677130 -1.972015 -39.750950 -64.559349 28.695288 0.253914 8.873333 0.452135 13.136049 -5.085104 -1.557967 -3.559075 1.802172 -13.065180 2.176913 -10.241910 -10.584826 11.939974 5.064695 1.193628 0.212870 -3.433772 11.790579 
100.912804 62.948296 52.661983 -2.314453 4.384766 66.787857 33.521172 -9.180510 -3.318912 -5.634766 12.939662 10.050838 51.063168 8.107644 2.471410 -19.511723 -3.847656 -9.267580 2.000000 -2.000000 0.000000 -77.978516 -4.501953 19.081266 -50.050293 -2.013148 -2.030645 7.630069 53.762756 6.718629 -2.000000 2.000000 0.000000 74.931641 1.171875 13.476764 50.732418 1.667381 -1.972583 -39.592850 -64.906036 28.615513 0.458602 9.003429 0.776466 13.177356 -5.117437 -1.525385 -3.761785 1.539634 -13.168348 2.496793 -10.343834 -10.424449 11.939966 5.064718 1.193630 0.058138 -3.358091 12.018778 
101.016937 62.907673 52.792282 -2.470703 4.560580 66.768204 32.988464 -9.410969 -3.262661 -5.634766 12.939662 10.050838 51.063168 8.107644 2.471410 -19.042971 -2.207031 -9.853517 2.000000 -2.000000 0.000000 -78.476563 -4.013672 18.505655 -50.226341 -2.013717 -2.040390 7.649383 54.514915 7.023829 -2.000000 2.000000 0.000000 74.746094 0.722656 14.042969 50.908184 1.677130 -1.972015 -39.452106 -64.978760 28.540762 0.878553 9.081395 0.982526 13.342533 -5.097394 -1.517778 -3.869912 1.204356 -12.961481 2.839247 -10.081855 -10.437786 12.114106 5.054429 1.197540 -0.145680 -3.309094 12.018885 
101.131058 62.921101 52.924774 -2.470703 4.560580 66.592422 32.447216 -9.657385 -3.190015 -5.634766 12.939662 10.050838 51.063168 8.107644 2.471410 -18.564455 -0.615234 -10.439455 2.000000 -2.000000 0.000000 -78.818359 -3.466797 17.773438 -50.402142 -2.003968 -2.040959 7.255425 54.951511 6.965549 -2.000000 2.000000 0.000000 74.414063 0.166016 14.423867 51.076469 1.887548 -2.057849 -38.965813 -64.537117 28.546440 1.219667 9.261990 1.344443 13.540703 -5.098322 -1.534102 -4.043572 1.138673 -13.004921 3.016183 -10.124357 -10.455637 12.288343 5.053675 1.056195 -0.131965 -3.580590 12.104472 
101.239586 62.894024 53.063400 -2.646484 4.726563 66.563309 31.905855 -9.896937 -3.137351 -5.830078 12.802734 10.099819 51.063168 8.107644 2.471410 -18.222656 0.996094 -10.810377 2.000000 -2.000000 0.000000 -78.896484 -2.783203 17.226561 -50.402142 -2.003968 -2.040959 6.852204 55.017094 6.826198 -2.000000 2.000000 0.000000 74.384766 -0.322266 14.970691 51.250523 1.668519 -1.992359 -38.984192 -64.371117 28.905275 1.365914 9.537959 1.376835 13.704492 -5.149303 -1.387592 -4.128931 1.044995 -13.068027 3.326065 -10.012440 -10.293989 12.309220 5.054300 1.057860 -0.311494 -3.548475 12.087002 
101.351501 62.874474 53.190575 -2.832031 4.902344 66.377785 31.353956 -9.980245 -2.970484 -5.830078 12.802734 10.099819 51.063168 8.107644 2.471410 -17.851563 2.607422 -11.357424 2.000000 -2.000000 0.000000 -79.062500 -1.679687 16.552450 -50.226078 -2.013148 -2.030645 5.952104 54.923656 6.070713 -2.000000 2.000000 0.000000 74.179688 -0.332031 15.380841 51.256413 1.767790 -1.849382 -38.958172 -64.409302 29.003288 1.717423 9.691410 1.423020 13.517960 -5.146068 -1.362010 -3.996971 1.023590 -12.903171 3.678864 -9.887697 -10.308639 12.309475 5.054399 1.048130 -0.320635 -3.536030 12.102214 
101.458656 62.838825 53.297844 -3.007812 5.087891 66.348526 30.998571 -10.223207 -2.908777 -5.830078 12.802734 10.099819 51.063168 8.107644 2.471410 -17.451174 4.189453 -11.835939 2.000000 -2.000000 0.000000 -79.150391 -0.800781 16.054548 -50.049473 -1.893885 -1.998486 4.782868 54.888508 5.448196 -2.000000 2.000000 0.000000 74.335938 0.078125 15.830089 51.426319 1.658770 -1.992926 -38.160999 -64.445976 28.055758 2.117462 9.808217 1.803894 13.704830 -5.146749 -1.406802 -4.162393 0.786402 -13.007575 3.670274 -9.900061 -10.131653 12.299415 4.702810 1.015949 -0.340075 -3.207564 12.498771 
101.554817 62.827374 53.403263 -3.007812 5.263672 66.163002 30.457272 -10.457030 -2.841962 -6.005858 12.832032 10.236545 51.063168 8.107644 2.471410 -17.226564 5.664063 -12.470704 2.000000 -2.000000 0.000000 -79.414063 0.048828 15.166015 -50.402161 -1.994219 -2.041528 3.351832 55.186184 4.810119 -2.000000 2.000000 0.000000 74.335938 0.068359 15.996105 51.426319 1.658770 -1.992926 -37.496708 -64.488388 27.506990 2.498018 9.906691 1.996116 13.882786 -5.147393 -1.392359 -4.272905 0.631625 -12.695491 4.198413 -9.726581 -10.499826 12.653113 4.663533 1.205883 -0.296284 -3.420755 12.574279 
101.625854 62.784904 53.480789 -3.193359 5.429688 65.967720 30.081379 -10.546045 -2.689445 -6.005858 12.832032 10.236545 51.063168 8.107644 2.471410 -17.177734 7.011719 -13.037110 2.000000 -2.000000 0.000000 -79.726563 1.191406 14.277343 -50.754013 -1.985038 -2.051842 1.922739 55.808437 4.359378 -2.000000 2.000000 0.000000 74.794922 -0.214844 16.201136 51.426319 1.658770 -1.992926 -37.496708 -64.488388 27.506990 2.682724 9.904993 2.364793 14.045451 -5.126794 -1.433327 -4.513669 0.355904 -12.650766 4.344927 -9.560180 -10.326547 13.003076 4.644564 1.222223 -0.489445 -3.352977 12.790540 
101.648773 62.759670 53.521294 -3.359375 5.615235 65.938461 29.917046 -10.703382 -2.771256 -6.005858 12.832032 10.236545 51.063168 8.107644 2.471410 -17.099609 8.349609 -13.553270 2.000000 -2.000000 0.000000 -80.078125 1.796875 13.701480 -51.105854 -1.975858 -2.062156 0.419333 56.022877 3.868955 -2.000000 2.000000 0.000000 75.009766 -0.830078 16.103374 51.251831 1.827917 -2.041760 -37.347691 -64.355080 27.564512 2.890272 10.106918 2.751830 14.232944 -5.127334 -1.429408 -4.720857 0.231647 -12.732563 4.477273 -9.572364 -9.965030 13.000034 4.594640 1.207726 -0.640757 -3.402806 12.532830 
